<?xml version="1.0" encoding="utf-8"?>
<!-- Generator: Adobe Illustrator 28.0.0, SVG Export Plug-In . SVG Version: 6.00 Build 0)  -->
<svg version="1.1" id="Layer_1" xmlns="http://www.w3.org/2000/svg" xmlns:xlink="http://www.w3.org/1999/xlink" x="0px" y="0px"
	 viewBox="0 0 638.38 241.58" style="enable-background:new 0 0 638.38 241.58;" xml:space="preserve">
<style type="text/css">
	.st0{fill:#FFFFFF;}
	.st1{fill:#1C3C6D;}
</style>
<g>
	<path class="st1" d="M353.89,85.14c-14.05-11.21-32.86-9.85-46.64-0.88c-2.29-4.79-8.29-6.74-15.26-6.74c-5.69,0-10.65,1-14.87,3
		c-4.22,2-7.91,5.41-11.05,10.22V79.45h-26.33v80.86c14.63,0,26.48-11.86,26.48-26.48v-17.78c0-2.53,0.31-4.99,0.91-7.38
		c0.61-2.38,1.55-4.49,2.82-6.31c1.27-1.83,2.92-3.27,4.96-4.33c0.52-0.27,1.45-0.51,2.6-0.72c5.41-0.96,10.97-0.51,16.2,1.13
		c-3.46,6.07-5.31,13.15-4.77,20.86c-2.2,33.18,40.21,53.66,65.11,32.63v8.39h25.33V48.54C359.55,48.31,351.44,67.94,353.89,85.14z
		 M354.05,127.99c-11.2,30.37-57.89,10.55-36.02-23.49c8.22-11.13,30.88-9.91,36.02,3.36C354.05,107.86,354.05,127.99,354.05,127.99
		z"/>
	<path class="st1" d="M153.12,79.34h-27.19l-21.79,25.59V79.45c-12.88,0-23.33,10.45-23.33,23.33v57.53h23.48v-22.57l17.25,22.57
		h31.58l-34.17-41.47L153.12,79.34z"/>
	<path class="st1" d="M557.27,79.34h-27.19l-21.79,25.59V79.45h0c-12.88,0-23.33,10.45-23.33,23.33v57.53h23.48v-22.57l17.25,22.57
		h31.58l-34.17-41.47L557.27,79.34z"/>
	<path class="st1" d="M450.87,85.14c-10.55-9.12-27.93-9.67-40.33-4.65c-15.68,6.26-24.86,21.95-24.63,38.81
		c-0.26,16.66,9.07,31.91,24.55,37.97c4.97,2.04,10.63,3.07,16.32,3.05v0h24.25h11.21h12.12V79.34h-23.48V85.14z M451.03,127.99
		c0.09,4.86-2.93,8.45-6.63,11.13c-8.3,6.13-23.09,3.93-29.81-2.44c-5.55-5.26-7.49-17.77,0.61-25.88
		c13.63-13.63,26.78-3.32,35.83-16.21V127.99z"/>
	<path class="st1" d="M206.47,85.14c-10.55-9.12-27.93-9.67-40.33-4.65c-15.68,6.26-24.86,21.95-24.63,38.81
		c-0.26,16.66,9.07,31.91,24.55,37.97c4.97,2.04,10.63,3.07,16.32,3.05v0h24.25h11.21h12.12V79.34h-23.48V85.14z M206.62,127.99
		c0.09,4.86-2.93,8.45-6.63,11.13c-8.3,6.13-23.09,3.93-29.81-2.44c-5.55-5.26-7.49-17.77,0.61-25.88
		c13.63-13.63,26.78-3.32,35.83-16.21V127.99z"/>
</g>
</svg>
